PathFileType	4	(X/Y/Z)	C:/Users/opensim2020/Desktop/walking_exp_matlab/subject06_walking20_straight_04.trc	
DataRate	CameraRate	NumFrames	NumMarkers	Units	OrigDataRate	OrigDataStartFrame	OrigNumFrames	
100.00	100.00	4	43	mm	100.00	2158	126	
Frame#	Time	LFHD			RFHD			LBHD			RBHD			C7			T10			CLAV			STRN			RBAK			LSHO			LUPA			LELB			LFRM			LWRA			LWRB			LFIN			RSHO			RUPA			RELB			RFRM			RWRA			RWRB			RFIN			LASI			RASI			LPSI			RPSI			LTHI			LKNE			LTIB			LANK			LHEE			LTOE			RTHI			RKNE			RTIB			RANK			RHEE			RTOE			*39			*40			*41			*42			
		X1	Y1	Z1	X2	Y2	Z2	X3	Y3	Z3	X4	Y4	Z4	X5	Y5	Z5	X6	Y6	Z6	X7	Y7	Z7	X8	Y8	Z8	X9	Y9	Z9	X10	Y10	Z10	X11	Y11	Z11	X12	Y12	Z12	X13	Y13	Z13	X14	Y14	Z14	X15	Y15	Z15	X16	Y16	Z16	X17	Y17	Z17	X18	Y18	Z18	X19	Y19	Z19	X20	Y20	Z20	X21	Y21	Z21	X22	Y22	Z22	X23	Y23	Z23	X24	Y24	Z24	X25	Y25	Z25	X26	Y26	Z26	X27	Y27	Z27	X28	Y28	Z28	X29	Y29	Z29	X30	Y30	Z30	X31	Y31	Z31	X32	Y32	Z32	X33	Y33	Z33	X34	Y34	Z34	X35	Y35	Z35	X36	Y36	Z36	X37	Y37	Z37	X38	Y38	Z38	X39	Y39	Z39	X40	Y40	Z40	X41	Y41	Z41	X42	Y42	Z42	X43	Y43	Z43	

1	0.000	1485.85327	1202.11951	1643.69641	1355.71362	1204.90649	1621.38123	1492.75439	1337.06738	1594.20557	1365.18970	1338.33203	1577.47681	1444.92932	1343.81348	1431.40979	1437.06580	1393.30664	1104.92651	1448.11975	1236.16980	1349.78491	1462.25439	1206.73987	1173.05371	1372.42065	1423.77722	1263.08069	1607.25415	1296.34717	1389.54041	1701.86841	1273.31567	1199.93604	1732.62988	1246.73157	1093.75269	1769.23340	1145.54688	987.70850	1737.77124	1026.28943	933.92029	1773.59717	1072.38440	893.80688	1782.29065	989.53760	858.16455	1284.20850	1278.88281	1378.51062	1198.35864	1365.30896	1197.69067	1178.65027	1389.73914	1079.40576	1153.13025	1415.68787	962.94763	1169.45117	1407.89624	809.20251	1134.71057	1460.47791	832.73615	1124.51904	1453.10742	749.73663	1561.53735	1233.80005	942.95300	1342.19165	1209.34497	942.96118	1511.39807	1387.82312	974.90588	1345.45496	1358.98840	966.49298	1622.47168	1361.63818	645.81421	1608.27979	1400.20032	483.87012	1605.29614	1516.35889	250.65643	1563.02722	1567.42358	83.45095	1514.64392	1605.83972	74.65637	1581.27283	1432.47070	40.97359	1277.06274	1188.13513	614.83911	1309.85132	1130.55676	502.78351	1323.38696	1072.39050	254.26297	1369.79871	1004.48932	82.28124	1421.13281	1028.13904	49.15671	1362.23438	849.66461	94.69452	1424.96753	1302.08801	1680.02734									 
2	0.010	1487.40540	1188.40625	1641.72656	1357.31909	1191.11035	1619.69299	1494.43335	1323.22595	1591.96643	1366.81116	1324.57666	1575.36609	1446.13184	1329.88965	1429.21887	1438.26318	1379.19360	1102.63184	1449.26953	1222.19592	1347.72034	1463.40063	1192.63391	1170.95300	1374.08240	1409.75073	1260.61853	1608.52197	1282.56018	1387.36963	1703.18066	1258.17432	1198.03064	1734.00476	1230.07129	1092.29553	1770.37549	1125.62817	990.13470	1737.43860	1004.46686	940.93781	1773.62305	1048.51111	898.90045	1781.33032	964.12823	866.49561	1285.43701	1265.09863	1376.49194	1199.53137	1352.35059	1196.20215	1179.50891	1377.60303	1078.19263	1153.58789	1404.96667	962.16254	1169.74585	1399.44238	808.13208	1134.55493	1451.76624	832.62042	1125.05115	1445.82629	749.12378	1562.96704	1220.52014	940.89813	1343.72461	1194.88904	940.72058	1511.94617	1374.20984	972.60852	1345.93665	1344.39368	964.42700	1623.43494	1350.78271	644.62219	1609.26477	1391.06714	483.04956	1605.44983	1511.99146	252.03003	1562.82568	1566.25684	85.80741	1514.21997	1604.42212	77.82286	1581.29016	1431.95142	40.91777	1278.43457	1176.15967	611.96747	1310.26855	1118.56787	500.48709	1322.45898	1054.16516	253.81282	1369.27368	979.11554	83.52846	1419.98804	1001.26971	50.30851	1358.94006	824.73431	101.41255	1426.76428	1288.58044	1677.94861									 
3	0.020	1488.86218	1174.58801	1640.05029	1358.64575	1177.45618	1618.16101	1495.92517	1309.33887	1589.99561	1368.27307	1310.77539	1573.69031	1447.26233	1315.86389	1427.43054	1439.37158	1364.96338	1100.64160	1450.29529	1207.99353	1345.97363	1464.34351	1178.45203	1169.14734	1375.39429	1395.51135	1258.33044	1609.67432	1268.55872	1385.51807	1704.19495	1243.01233	1196.35303	1735.01855	1213.67041	1090.98560	1770.44788	1106.11035	992.17279	1736.72119	983.63776	947.73468	1773.26746	1025.69324	904.02368	1780.21570	940.09821	875.04810	1286.46313	1251.11621	1374.76648	1200.50281	1339.17932	1195.15332	1180.13513	1365.00757	1077.24524	1153.76013	1393.87036	961.82117	1170.07092	1389.94922	807.40173	1134.56543	1441.60474	832.78351	1125.41785	1437.29114	748.85077	1564.54956	1207.08618	939.09198	1345.43860	1180.19556	938.85626	1512.31177	1360.30481	970.33594	1346.28430	1329.96838	962.77582	1624.15576	1339.40491	643.46112	1609.99097	1381.23511	482.18192	1605.15833	1506.76978	253.40083	1562.83557	1564.89746	88.68330	1514.08276	1602.96680	81.68916	1581.14307	1431.36353	40.64616	1279.96655	1162.41418	610.25055	1310.78406	1105.05493	499.52109	1321.67908	1037.29236	253.31485	1367.46936	957.82544	84.93880	1418.63452	978.65936	51.11548	1356.60754	803.41949	105.89050	1428.34058	1274.86340	1676.20215									 
4	0.030	1490.17017	1160.74634	1638.68384	1359.90686	1163.62549	1617.12280	1497.15479	1295.38538	1588.30835	1369.45459	1296.81140	1572.31677	1448.13464	1301.61462	1425.96313	1440.35071	1350.54211	1098.92395	1451.11353	1193.67847	1344.59241	1465.08459	1164.13477	1167.70093	1376.27173	1381.10681	1256.43274	1610.62964	1254.30273	1383.99048	1704.88196	1227.89575	1194.93896	1735.62537	1197.51526	1089.92383	1770.55115	1087.36914	994.24524	1735.66626	963.55957	954.36615	1772.52368	1003.90649	909.06647	1778.66846	917.14539	883.16486	1287.37134	1236.94934	1373.41455	1201.31091	1325.74915	1194.48840	1180.62427	1352.10486	1076.69116	1154.15759	1381.73022	961.35248	1170.20007	1379.73169	807.06647	1134.51563	1431.10706	832.81927	1125.73486	1427.52637	748.84235	1566.00806	1193.30408	937.31866	1346.93750	1165.26733	937.61652	1512.64819	1346.13354	968.31024	1346.59277	1315.21521	961.53790	1624.75354	1327.47656	642.36224	1610.76514	1370.78699	481.40244	1605.36511	1501.31018	255.43675	1563.19250	1563.31079	92.17442	1514.40186	1601.29089	86.20341	1581.15503	1430.84424	40.62624	1280.46094	1146.19958	610.78320	1311.75635	1090.01160	499.76901	1320.78357	1021.56061	253.23096	1365.81018	940.24341	85.34438	1416.80725	960.58209	50.97395	1355.27039	785.77515	107.54455	1429.76611	1261.09363	1674.72900									 
